# xmcd
#
# Track frame offsets:
# 200
# 13925
# 26607
# 40537
# 53080
# 65065
# 77320
# 90042
# 103222
# 116327
# 129052
# 141705
# 155325
# 168612
#
# Disc length: 2420 seconds
#
#
# Revision: 0
# Processed by: cddbd v1.4PL0 Copyright (c) Steve Scherf et al.
# Submitted via: FreeRIP 2.12 
#
DISCID=aa09720e
DTITLE=Pete Johnson - Central Avenue Boogie
DYEAR=1900
DGENRE=Blues
TTITLE0=Pete Kay Bogie
TTITLE1=Central Avenue Drag
TTITLE2=Margie
TTITLE3=66 Stomp
TTITLE4=Minute Boogie
TTITLE5=Yancey Street Boogie
TTITLE6=Swanee River Boogie
TTITLE7=Hollywood Boogie [Alternate 1]
TTITLE8=Hollywood Boogie [Alternate 2]
TTITLE9=Hollywood Boogie [Alternate 3]
TTITLE10=Hollywood Boogie [Master]
TTITLE11=Plain Food Blues
TTITLE12=Plain Food Blues
TTITLE13=Wiley's Boogie
EXTD=
EXTT0=
EXTT1=
EXTT2=
EXTT3=
EXTT4=
EXTT5=
EXTT6=
EXTT7=
EXTT8=
EXTT9=
EXTT10=
EXTT11=
EXTT12=
EXTT13=
PLAYORDER=
